<?xml version="1.0" encoding="utf-8"?>
<!-- Generator: Adobe Illustrator 19.1.1, SVG Export Plug-In . SVG Version: 6.00 Build 0)  -->
<svg version="1.1" id="Capa_1" xmlns="http://www.w3.org/2000/svg" xmlns:xlink="http://www.w3.org/1999/xlink" x="0px" y="0px"
	 viewBox="0 0 792 612" style="enable-background:new 0 0 792 612;" xml:space="preserve">
<style type="text/css">
	.st0{fill:#F6B63E;}
	.st1{fill:#008BCF;}
	.st2{fill:#E76114;}
</style>
<g>
	<g>
		<path class="st0" d="M53.7,291.6c0,0,0,0.5,0,1.5c0,0.5,0,1.1,0,1.8c0,0.3,0,0.7,0,1.1c0,0.4,0,0.7,0,1.1c0,0.8,0,1.7,0.1,2.7
			c0.1,1,0.2,2.1,0.2,3.3c0.2,2.3,0.6,5,1.1,7.8c0.3,1.4,0.6,2.9,1,4.4c0.5,1.5,0.8,3.1,1.4,4.7c1,3.2,2.4,6.5,3.9,9.8
			c1.6,3.3,3.5,6.7,5.6,9.9c2.2,3.2,4.6,6.4,7.3,9.4c2.7,2.9,5.6,5.7,8.6,8.3c3.1,2.5,6.3,4.8,9.5,6.8c3.3,1.9,6.5,3.7,9.7,5.1
			c1.6,0.8,3.2,1.3,4.7,1.9c1.6,0.5,3.1,1.1,4.5,1.5c3,0.9,5.7,1.5,8.2,2c1.2,0.2,2.4,0.4,3.5,0.6c1.1,0.1,2.1,0.3,3,0.4
			c1.8,0.3,3.2,0.3,4.2,0.4c1,0.1,1.5,0.1,1.5,0.1s-0.5,0-1.5,0c-1,0-2.4,0.1-4.2,0c-0.9,0-1.9-0.1-3-0.1c-1.1-0.1-2.3-0.2-3.6-0.3
			c-2.5-0.3-5.4-0.6-8.5-1.2c-1.5-0.3-3.1-0.7-4.8-1.1c-1.6-0.5-3.4-0.9-5.1-1.5c-3.5-1.1-7-2.6-10.6-4.3c-3.6-1.8-7.2-3.8-10.7-6.1
			c-3.5-2.4-6.9-5-10.1-7.9c-3.2-2.9-6.2-6.1-8.9-9.4c-2.7-3.3-5.1-6.8-7.3-10.3c-2.1-3.5-4-7.1-5.4-10.5c-0.8-1.7-1.4-3.5-2.1-5.1
			c-0.6-1.7-1.1-3.3-1.6-4.9c-0.9-3.2-1.6-6.2-2.2-8.8c-0.2-1.3-0.4-2.6-0.6-3.8c-0.2-1.2-0.3-2.3-0.4-3.3c-0.1-0.5-0.1-1-0.2-1.4
			c0-0.4-0.1-0.8-0.1-1.1c-0.1-0.7-0.1-1.3-0.1-1.8c-0.1-1-0.1-1.5-0.1-1.5c-0.3-3.6,2.5-6.8,6.1-7.1c3.6-0.3,6.8,2.5,7.1,6.1
			C53.7,291.2,53.7,291.4,53.7,291.6z"/>
	</g>
	<path class="st0" d="M58,268.6c0,4.1-3.3,7.4-7.4,7.4c-4.1,0-7.4-3.3-7.4-7.4c0-4.1,3.3-7.4,7.4-7.4C54.7,261.1,58,264.5,58,268.6z
		"/>
	<g>
		<g>
			<path class="st1" d="M168.4,268c-3.6-5.1-8.1-9.3-13.1-12.7c-7.6-5.2-16.8-8.2-27.2-8.2c-25.7,0-48,19.6-48,48.9
				c0,29.8,22.5,49.4,48.1,49.4c12.4,0,23.3-4.3,31.4-10.6c8.2-6.5,13.9-15.4,15.8-24.5h-58.3v-10.8h73.5
				c-0.2,6.8-1.7,15.4-5.2,22.6c-10.1,22-33.6,34.8-57.2,34.8c-34.2,0-61.3-26.3-61.3-61c0-35.2,27.6-60.5,61.4-60.5
				c23.7,0,45.8,13.3,54.9,32.5H168.4z"/>
			<path class="st1" d="M212.5,315.5c0.6,21.4,18.8,31.7,33.3,31.5c13.1,0,23.8-6.5,29.3-17.6h12.2c-4,9.2-10,16.2-17.3,20.7
				c-7.1,4.6-15.5,7-24.2,7c-29.6,0-45-23.6-45-44.8c0-25,19.3-45.1,44.8-45.1c12,0,23.1,4.3,31.2,12c9.8,9.5,14.6,22.6,13.3,36.3
				H212.5z M278.5,306.2c-0.8-14.9-15.2-29.5-32.8-29c-18.4,0-32,13.5-33.1,29H278.5z"/>
			<path class="st1" d="M345,291c0-9-6-14.1-14.6-14.1c-9.3,0-15,6.3-14.7,13.8c0.3,8.1,6.5,11.4,16.8,14.4
				c12.2,3.3,25.8,6.8,26.4,25c0.6,15.7-12,27.1-28.2,27.1c-13.8,0-29-8.7-29.1-26.6h11.6c0.5,11.7,9.2,16.9,17.7,16.9
				c9.8,0,16.6-7.3,16.5-16c-0.3-9.7-6.7-13.6-21.4-17.9c-12.2-3.6-21.7-8.5-22-22c0-15.4,12.2-24.4,26.6-24.4
				c11.9,0,25.2,6.5,26,23.8H345z"/>
			<path class="st1" d="M384.6,278.9h-16.8v-9.3h16.8v-32h11.6v32h18.7v9.3h-18.7v75.9h-11.6V278.9z"/>
			<path class="st1" d="M427.7,237.6h11.7v16.3h-11.7V237.6z M427.7,269.6h11.7v85.2h-11.7V269.6z"/>
			<path class="st1" d="M564.9,269.6H576c0,4.8,0,9.5-0.2,15.2c4.9-11.1,16.5-17.9,31.7-17.6c26.4,0.3,35.8,18.4,35.8,39.1v48.5
				h-11.5v-46.1c0-18.4-8.2-30.9-27.4-30.6c-17.6,0.2-27.7,10.8-27.7,28.5v48.1h-11.7V269.6z"/>
			<path class="st1" d="M751.5,354.8h-11.7v-17.6c-6.7,12.8-19.6,20-34.8,20c-27.7,0-44.2-21.5-44.2-45c0-25,18.2-45,44.2-45
				c18.2,0,30.7,10.6,34.8,20.3v-17.9h11.7V354.8z M672.3,312.3c0.2,15.4,10.8,33.9,34.2,33.9c15.1,0,26.1-8.7,30.7-20.7
				c1.9-4.1,2.8-8.9,2.8-13.5c0.2-4.7-0.8-9.5-2.7-13.6c-4.8-11.7-16.2-20.4-31.2-20.4c-19.6,0-33.9,15.2-33.9,34.2V312.3z"/>
		</g>
	</g>
	<g>
		<path class="st0" d="M542.8,331.2c-1.5-5.2-4.2-10-8.2-14.1c0,0-1.2-1.4-2.6-2.2l0,0c-1.3,3.3-3,7.2-6.7,12.4
			c-8.4,11.6-21.2,17.9-33.8,17.9c-4.1,0-8.2-0.7-12.1-2c-3.1-1.1-6.1-2.6-8.8-4.6c-7.9-5.7-12.8-14.2-14.4-23.5
			c-0.1,1.2-0.2,2.5-0.2,3.7c0,25.4,20.6,46.1,46.1,46.1c10.7,0,20.6-3.7,28.4-9.8c5.5-4.3,10.3-10.4,13.4-16.7
			C543.6,333.9,542.8,331.2,542.8,331.2z"/>
	</g>
	<g>
		<path class="st2" d="M541.6,294.8c-0.2-0.4-0.4-0.8-0.7-1.3c-3.7-6.9-12.4-19-29.8-24.6l0-2.8l0.1-9c0,0-28.1,4.2-50.7,19.7
			c0,0,4.9,2.5,11.8,6.8l-0.2,0.1c-6.5,5.6-11.3,12.9-13.9,21.3l1.6,9.3c1.5,8.7,6.1,16.3,12.9,21.2c0.6,0.5,1.3,0.8,2,1.2
			c-4.5-7.1-7.2-15.6-7.2-24.7c0-9.7,3-18.7,8.1-26.1l0.1-0.2c0.1,0.1,0.2,0.1,0.3,0.2c11.1,7.1,25.7,17.7,34.6,29.1l0.2-14.8
			c2.2,0.5,12.7,3.2,21.9,10.4c1.2,0.9,2.3,1.9,3.4,2.9c4.6,4.4,8.6,10.2,10.4,17.7c0.5-1.8,0.9-3.7,1.2-5.7
			c0.3-2.2,0.5-4.5,0.5-6.9C548.3,310,545.8,301.8,541.6,294.8z"/>
	</g>
</g>
</svg>
